{"glyphs":{":":{"x_min":0,"x_max":277,"ha":277,"o":"m 77 105 q 98 105 112 90 q 126 75 126 51 q 126 22 111 4 q 96 -13 72 -13 q 50 -13 36 2 q 22 18 22 42 q 22 68 38 87 q 54 105 77 105 z m 152 445 q 174 445 188 430 q 201 416 201 392 q 201 362 186 345 q 171 327 147 327 q 125 327 111 343 q 97 358 97 383 q 97 409 113 427 q 129 445 152 445 z"},"$":{"x_min":0,"x_max":554,"ha":554,"o":"m 290 302 l 226 17 l 236 17 q 295 17 333 56 q 372 96 372 156 q 372 184 355 216 q 337 247 290 302 z m 338 671 q 285 671 249 639 q 214 608 214 562 q 214 535 230 506 q 246 477 286 432 z m 360 770 l 393 770 l 377 697 q 398 694 434 685 q 470 675 486 675 q 494 675 503 677 q 513 678 524 681 q 516 646 509 609 q 501 572 492 525 l 472 525 q 473 528 473 532 q 473 536 473 543 q 473 595 446 628 q 419 662 371 669 l 312 407 q 389 322 415 276 q 441 229 441 186 q 441 101 383 44 q 324 -13 236 -13 q 233 -13 228 -13 q 222 -12 219 -12 l 188 -156 l 155 -156 l 188 -6 q 134 11 110 16 q 85 22 71 22 q 59 22 48 21 q 37 19 27 16 q 35 58 51 144 q 58 182 62 202 l 81 202 q 81 199 81 193 q 80 187 80 183 q 80 124 110 82 q 141 40 195 22 l 264 329 q 191 410 169 450 q 146 490 146 528 q 146 604 198 651 q 250 699 334 699 l 345 699 z"},"?":{"x_min":0,"x_max":527,"ha":527,"o":"m 166 105 q 188 105 201 90 q 214 75 214 51 q 214 22 199 4 q 185 -13 161 -13 q 139 -13 125 2 q 111 18 111 43 q 111 69 127 87 q 143 105 166 105 z m 225 198 l 201 208 l 205 218 q 247 328 286 373 q 292 380 303 393 q 394 498 394 569 q 394 620 359 659 q 324 698 279 698 q 249 698 233 681 q 217 663 215 629 l 215 628 q 212 524 158 524 q 139 524 128 535 q 118 545 118 565 q 118 593 135 625 q 151 658 178 681 q 206 706 238 717 q 270 728 310 728 q 389 728 437 686 q 485 643 485 573 q 485 487 374 392 l 373 391 l 372 390 q 254 290 225 198 z"},"<":{"x_min":0,"x_max":833,"ha":833,"o":"m 704 566 l 704 491 l 231 298 l 704 106 l 704 31 l 129 267 l 129 330 z"},"'":{"x_min":0,"x_max":172,"ha":172,"o":"m 95 420 l 78 420 l 44 644 q 44 645 43 648 q 42 658 42 662 q 42 687 53 700 q 65 714 86 714 q 106 714 118 701 q 130 688 130 664 q 130 661 130 657 q 129 653 128 644 z"},"=":{"x_min":0,"x_max":833,"ha":833,"o":"m 124 235 l 709 235 l 709 167 l 124 167 z m 124 429 l 709 429 l 709 361 l 124 361 z"},"a":{"x_min":0,"x_max":527,"ha":527,"o":"m 361 395 l 382 480 l 459 480 l 358 103 q 355 93 354 85 q 353 78 353 73 q 353 64 358 59 q 363 54 371 54 q 384 54 405 72 q 426 89 455 125 l 470 112 q 429 52 389 20 q 348 -13 316 -13 q 294 -13 283 -1 q 272 11 272 34 q 272 51 279 83 q 286 115 300 161 q 245 70 197 29 q 149 -13 99 -13 q 51 -13 25 19 q -1 51 -1 111 q -1 171 23 236 q 46 301 88 354 q 139 419 184 450 q 229 480 274 480 q 312 480 334 458 q 356 436 361 395 z m 277 456 q 247 456 216 431 q 185 406 152 355 q 118 302 99 244 q 80 187 80 137 q 80 96 96 74 q 112 53 144 53 q 167 53 190 67 q 212 82 238 113 q 287 172 315 240 q 344 309 344 366 q 344 409 327 433 q 309 456 277 456 z"},"L":{"x_min":0,"x_max":591,"ha":591,"o":"m 128 717 q 155 713 185 712 q 215 710 249 710 q 290 710 327 712 q 364 713 400 717 l 400 696 q 346 696 329 685 q 312 674 302 631 l 177 66 q 177 63 175 57 q 174 52 174 50 q 174 42 181 38 q 188 34 205 34 l 299 34 q 382 34 445 73 q 508 113 547 189 l 570 189 q 547 141 526 94 q 505 46 486 0 l 113 0 q 54 0 26 -1 q -1 -1 -23 -3 l -23 19 q 30 19 48 30 q 65 42 75 84 l 197 631 q 200 648 201 655 q 202 661 202 665 q 202 680 189 686 q 177 692 128 696 z"},"3":{"x_min":0,"x_max":554,"ha":554,"o":"m 159 686 l 519 686 l 253 405 q 265 408 273 409 q 282 410 290 410 q 357 410 396 365 q 435 319 435 240 q 435 191 417 145 q 398 100 364 64 q 327 26 284 6 q 241 -13 192 -13 q 140 -13 94 10 q 47 32 8 77 l 24 94 q 63 57 100 40 q 137 23 176 23 q 247 23 294 79 q 342 135 342 220 q 342 296 305 336 q 269 376 199 376 l 187 376 l 401 603 q 399 603 395 603 q 366 601 353 601 l 155 601 q 138 601 130 598 q 123 595 118 588 l 99 588 q 116 608 131 633 q 146 657 159 686 z"},";":{"x_min":0,"x_max":277,"ha":277,"o":"m -42 -150 l -49 -134 q 8 -108 40 -73 q 72 -39 80 6 q 71 -1 62 -4 q 53 -8 44 -8 q 27 -8 17 4 q 6 16 6 35 q 6 62 25 83 q 44 103 68 103 q 93 103 108 85 q 122 66 122 34 q 122 -21 80 -69 q 37 -117 -42 -150 z m 147 445 q 169 445 182 430 q 195 416 195 392 q 195 362 180 345 q 166 327 142 327 q 120 327 106 343 q 92 358 92 383 q 92 409 108 427 q 124 445 147 445 z"},"J":{"x_min":0,"x_max":372,"ha":372,"o":"m 128 717 q 155 713 185 712 q 215 710 249 710 q 290 710 327 712 q 364 713 400 717 l 400 696 q 346 696 329 685 q 312 674 302 631 l 197 160 l 194 145 q 152 -44 92 -102 q 66 -127 33 -146 q 1 -164 -40 -177 l -40 -153 q 29 -128 85 130 q 94 167 98 187 l 197 631 q 199 641 201 649 q 202 658 202 665 q 202 680 189 686 q 177 692 128 696 z"},"V":{"x_min":0,"x_max":612,"ha":612,"o":"m 30 717 q 64 714 95 712 q 127 711 157 711 q 184 711 215 712 q 247 714 281 717 l 281 696 q 275 695 264 693 q 206 685 206 658 q 206 654 206 650 q 207 646 208 637 l 282 141 l 575 633 q 577 637 581 643 q 592 662 592 670 q 592 682 580 688 q 567 693 529 696 l 529 717 q 553 714 575 712 q 597 711 617 711 q 637 711 656 712 q 675 714 695 717 l 695 696 q 652 695 579 569 q 564 544 556 531 l 237 -1 q 231 -11 228 -15 q 224 -19 220 -19 q 215 -19 212 -14 q 209 -8 208 2 l 110 622 q 103 669 88 682 q 73 694 30 696 z"},"\"":{"x_min":0,"x_max":335,"ha":335,"o":"m 257 420 l 240 420 l 206 644 q 206 647 205 651 q 205 655 205 662 q 205 687 216 700 q 227 714 248 714 q 269 714 280 701 q 292 688 292 664 q 292 656 292 652 q 292 648 291 644 z m 95 420 l 78 420 l 44 644 q 43 652 42 657 q 42 661 42 664 q 42 688 54 701 q 65 714 86 714 q 107 714 119 700 q 130 687 130 662 q 130 654 130 651 q 129 647 129 644 z"},"7":{"x_min":0,"x_max":554,"ha":554,"o":"m 150 686 l 563 686 q 422 444 333 276 q 243 108 196 -3 l 106 -3 l 458 599 l 176 599 q 149 599 140 596 q 131 593 129 585 l 113 585 q 122 604 131 629 q 140 654 150 686 z"},"S":{"x_min":0,"x_max":569,"ha":569,"o":"m 537 703 q 528 666 519 624 q 510 583 500 531 l 479 531 q 473 607 434 652 q 395 696 335 696 q 277 696 240 664 q 202 632 202 584 q 202 530 316 433 l 317 432 q 327 424 345 408 q 478 297 478 201 q 478 112 412 49 q 346 -13 250 -13 q 208 -13 149 4 q 90 22 70 22 q 55 22 41 18 q 26 14 11 5 q 23 62 35 123 q 47 184 60 252 l 84 252 l 84 237 q 84 144 131 85 q 178 26 250 26 q 311 26 353 65 q 394 104 394 160 q 394 226 287 314 q 266 332 254 342 l 247 348 q 117 458 117 540 q 117 622 175 675 q 232 728 321 728 q 362 728 419 711 q 476 695 494 695 q 500 695 510 697 q 520 699 537 703 z"},"}":{"x_min":0,"x_max":500,"ha":500,"o":"m 86 740 l 91 740 q 198 740 239 704 q 279 668 279 571 l 279 470 q 279 392 307 362 q 335 333 414 326 l 414 295 q 335 289 307 259 q 279 229 279 151 l 279 50 q 279 -47 239 -83 q 198 -119 91 -119 l 86 -119 l 86 -93 q 153 -92 177 -67 q 201 -41 201 35 l 201 104 q 201 215 230 255 q 258 294 336 310 q 259 326 230 365 q 201 405 201 516 l 201 585 q 201 662 177 688 q 152 713 86 714 z"},"Z":{"x_min":0,"x_max":672,"ha":672,"o":"m 654 718 l 141 37 q 151 37 163 36 q 175 36 199 36 q 326 36 390 46 q 454 55 484 77 q 508 95 527 121 q 545 147 559 183 l 581 183 q 572 152 565 106 q 557 61 550 -3 q 502 0 432 1 q 362 3 271 3 q 204 3 135 1 q 66 0 -12 -3 l 503 680 q 419 680 362 678 q 305 675 270 670 q 220 663 184 634 q 147 604 125 552 l 103 552 q 120 601 133 641 q 146 682 156 717 q 175 714 198 713 q 220 712 269 712 q 388 712 484 713 q 581 715 654 718 z"},"x":{"x_min":0,"x_max":443,"ha":443,"o":"m 150 492 q 167 455 183 406 q 199 356 219 281 l 294 379 q 341 441 363 460 q 386 480 405 480 q 421 480 428 470 q 436 461 436 441 q 436 407 427 391 q 417 374 399 374 q 382 374 373 387 q 364 401 360 401 q 353 401 340 389 q 327 378 310 357 l 227 254 l 266 125 q 278 85 291 66 q 304 47 318 47 q 334 47 350 66 q 366 86 380 123 l 397 116 q 372 49 344 18 q 317 -13 283 -13 q 256 -13 239 4 q 222 22 210 64 l 171 197 l 96 87 q 55 26 33 7 q 10 -13 -12 -13 q -30 -13 -38 -1 q -46 11 -46 38 q -46 66 -35 83 q -24 100 -6 100 q 12 100 21 83 q 30 65 34 65 q 44 65 69 100 q 74 106 76 109 l 163 228 l 116 377 q 107 407 101 415 q 94 424 84 424 q 74 424 34 415 l 31 414 l 26 434 q 56 447 87 462 q 118 476 150 492 z"},")":{"x_min":0,"x_max":390,"ha":390,"o":"m 161 728 q 213 646 238 568 q 263 489 263 411 q 263 251 193 109 q 123 -33 -23 -166 l -38 -151 q 73 -39 131 118 q 189 275 189 465 q 189 543 178 606 q 167 669 144 716 z"},"&":{"x_min":0,"x_max":786,"ha":786,"o":"m 273 397 q 190 353 149 301 q 108 250 108 191 q 108 129 146 88 q 184 47 242 47 q 284 47 325 65 q 366 83 405 119 q 366 180 333 249 q 301 318 273 397 z m 348 435 q 369 371 398 308 q 428 246 465 186 q 512 247 541 297 q 569 348 569 368 q 569 381 558 387 q 547 394 517 397 l 517 418 q 537 415 558 413 q 579 411 602 411 q 621 411 645 413 q 669 414 705 418 l 705 397 q 704 397 700 397 q 697 398 696 398 q 652 398 565 275 q 515 204 481 161 q 519 100 562 68 q 605 36 651 36 q 674 36 696 45 q 717 55 740 74 l 754 57 q 709 22 668 4 q 626 -13 588 -13 q 542 -13 502 14 q 461 42 422 98 q 361 41 303 13 q 245 -14 185 -14 q 106 -14 59 30 q 12 73 12 146 q 12 226 76 295 q 140 364 266 421 q 259 446 256 469 q 253 491 253 512 q 253 606 310 667 q 367 728 454 728 q 503 728 530 707 q 557 685 557 647 q 557 586 504 532 q 450 478 348 435 z m 341 459 q 417 497 455 543 q 494 590 494 643 q 494 671 481 687 q 468 702 445 702 q 395 702 362 658 q 329 614 329 544 q 329 523 332 502 q 335 481 341 459 z"},"_":{"x_min":0,"x_max":500,"ha":500,"o":"m 0 -166 l 500 -166 l 500 -236 l 0 -236 z"},"v":{"x_min":0,"x_max":443,"ha":443,"o":"m 122 480 q 140 443 149 391 q 158 339 158 273 q 158 234 153 180 q 147 126 135 42 q 180 66 217 99 q 253 133 281 174 q 318 229 341 284 q 363 339 363 371 q 363 381 358 386 q 354 392 343 396 q 340 397 336 398 q 311 407 311 429 q 311 458 323 469 q 334 480 364 480 q 396 480 409 468 q 423 457 423 430 q 423 409 414 375 q 404 341 387 299 q 361 238 325 185 q 290 133 243 88 q 197 44 147 19 q 98 -7 45 -13 q 63 32 73 96 q 83 160 83 231 q 83 325 74 372 q 65 420 48 420 q 42 420 29 417 q 17 415 -2 409 l -8 431 q 17 440 61 457 q 104 473 122 480 z"},"O":{"x_min":0,"x_max":781,"ha":781,"o":"m 466 696 q 418 696 374 674 q 330 652 291 610 q 226 537 191 447 q 156 356 156 259 q 156 153 205 91 q 254 30 338 30 q 382 30 421 45 q 459 60 490 88 q 558 151 598 250 q 638 350 638 458 q 638 569 592 632 q 545 696 466 696 z m 468 728 q 586 728 662 648 q 738 569 738 444 q 738 350 706 267 q 674 185 610 114 q 552 51 480 19 q 407 -13 322 -13 q 195 -13 119 65 q 42 143 42 271 q 42 375 90 470 q 138 565 229 643 q 275 683 339 705 q 403 728 468 728 z"},"(":{"x_min":0,"x_max":390,"ha":390,"o":"m 388 728 l 404 714 q 292 601 234 444 q 176 287 176 99 q 176 21 188 -43 q 199 -107 222 -153 l 204 -166 q 152 -86 127 -6 q 102 74 102 160 q 102 314 173 455 q 244 596 388 728 z"},"C":{"x_min":0,"x_max":670,"ha":670,"o":"m 663 693 q 650 635 641 581 q 632 526 627 474 l 606 474 q 606 479 607 486 q 607 492 607 504 q 607 591 563 642 q 520 694 446 694 q 395 694 347 669 q 300 644 259 596 q 208 536 180 456 q 153 376 153 287 q 153 169 204 101 q 255 33 343 33 q 408 33 466 70 q 523 107 569 179 l 589 171 q 539 81 467 34 q 395 -13 308 -13 q 184 -13 113 60 q 42 133 42 262 q 42 356 78 446 q 115 536 181 606 q 238 666 306 697 q 375 728 449 728 q 495 728 558 709 q 622 691 643 691 q 651 691 655 691 q 659 692 663 693 z"},"W":{"x_min":0,"x_max":918,"ha":918,"o":"m 30 717 q 64 714 95 712 q 127 711 157 711 q 184 711 215 712 q 247 714 281 717 l 281 696 q 227 692 215 683 q 202 674 202 639 q 202 628 202 624 q 203 619 203 615 l 247 160 l 476 567 l 471 622 q 466 668 451 681 q 437 694 394 696 l 394 717 q 426 714 457 712 q 488 711 518 711 q 544 711 574 712 q 604 714 638 717 l 638 696 q 590 690 578 684 q 566 677 566 658 q 566 650 566 646 q 566 642 567 637 l 610 160 l 870 623 l 873 628 q 892 662 892 670 q 892 683 878 688 q 863 694 828 696 l 828 717 q 852 714 874 712 q 896 711 917 711 q 937 711 956 712 q 976 714 995 717 l 995 696 l 992 696 q 971 696 946 668 q 922 641 884 574 l 547 -20 l 537 -20 l 484 515 l 184 -20 l 174 -20 l 103 631 q 98 673 85 685 q 72 696 36 696 l 30 696 z"},"A":{"x_min":0,"x_max":633,"ha":633,"o":"m 357 568 l 167 272 l 392 272 z m 422 728 l 432 728 l 511 80 q 513 61 517 48 q 521 36 527 31 q 533 26 547 23 q 561 20 584 19 l 584 -3 q 542 1 514 2 q 487 4 467 4 q 448 4 424 2 q 400 1 352 -3 l 352 19 q 390 21 402 27 q 414 33 414 47 q 414 47 413 54 q 413 61 412 68 l 394 237 l 145 237 l 69 120 q 45 84 38 68 q 31 52 31 39 q 31 30 43 25 q 56 20 79 19 l 79 -3 q 40 1 22 3 q 4 4 -7 4 q -20 4 -38 2 q -57 1 -94 -3 l -94 19 q -62 22 -38 40 q -14 58 27 120 z"},"f":{"x_min":0,"x_max":306,"ha":306,"o":"m 235 592 l 207 443 l 308 443 l 304 414 l 203 414 l 135 86 q 102 -73 57 -150 q 13 -227 -47 -227 q -72 -227 -86 -214 q -100 -200 -100 -176 q -100 -156 -87 -142 q -75 -129 -55 -129 q -33 -129 -21 -153 q -8 -177 -4 -177 q 5 -177 13 -156 q 21 -136 30 -90 l 121 414 l 19 414 l 25 443 l 128 443 l 140 503 q 166 632 215 693 q 264 754 342 754 q 379 754 403 734 q 427 714 427 684 q 427 660 416 647 q 405 635 385 635 q 365 635 354 644 q 343 653 343 668 q 343 679 345 692 q 347 705 347 707 q 347 715 342 720 q 336 725 326 725 q 292 725 270 693 q 248 661 235 592 z"},"Q":{"x_min":0,"x_max":781,"ha":781,"o":"m 495 26 q 550 -10 596 -27 q 642 -45 680 -45 l 686 -45 l 686 -66 l 664 -66 q 582 -66 520 -51 q 458 -36 409 -5 q 390 -9 369 -11 q 348 -13 322 -13 q 195 -13 119 65 q 42 143 42 271 q 42 375 90 470 q 138 565 229 643 q 275 682 340 705 q 404 728 468 728 q 587 728 662 648 q 738 569 738 444 q 738 309 674 200 q 611 90 495 26 z m 466 696 q 418 696 374 674 q 330 652 291 610 q 226 537 191 447 q 156 356 156 259 q 156 153 205 91 q 254 30 338 30 q 382 30 421 45 q 459 60 490 88 q 558 151 598 250 q 638 350 638 458 q 638 569 592 632 q 545 696 466 696 z"},"w":{"x_min":0,"x_max":699,"ha":699,"o":"m 122 480 q 140 444 148 392 q 157 340 157 271 q 157 222 152 168 q 146 114 136 56 q 205 104 256 181 q 308 258 342 365 q 337 395 331 407 q 325 420 315 420 q 311 420 299 417 q 296 417 295 416 l 285 440 q 304 448 359 469 l 388 480 q 406 444 414 392 q 423 340 423 271 q 423 224 418 168 q 413 113 403 48 q 457 82 498 125 q 539 169 569 225 q 592 269 606 309 q 619 349 619 371 q 619 380 615 386 q 610 391 598 396 q 595 397 591 398 q 566 407 566 428 q 566 457 578 468 q 590 480 620 480 q 651 480 665 468 q 678 457 678 430 q 678 408 669 374 q 660 339 643 299 q 617 238 581 185 q 545 133 499 88 q 457 47 410 22 q 364 -3 313 -13 q 331 30 340 97 q 350 165 350 246 q 350 270 350 283 q 349 296 348 308 q 299 177 222 96 q 146 15 45 -13 q 63 32 73 96 q 83 160 83 231 q 83 325 74 372 q 65 420 48 420 q 42 420 29 417 q 17 415 -2 409 l -8 431 q 17 440 61 457 q 104 473 122 480 z"},"-":{"x_min":0,"x_max":397,"ha":397,"o":"m 74 277 l 287 277 l 272 203 l 58 203 z"},"E":{"x_min":0,"x_max":643,"ha":643,"o":"m 126 717 q 140 716 157 715 q 175 715 211 715 l 273 715 l 607 717 q 600 675 596 634 q 592 592 591 551 l 570 551 q 570 556 571 561 q 571 566 571 575 q 571 638 535 661 q 500 683 367 683 l 360 683 q 309 683 300 645 q 298 636 297 631 l 244 390 l 372 390 q 425 390 443 406 q 461 421 472 468 l 493 468 q 478 412 466 361 q 455 309 447 260 l 426 260 q 429 282 430 295 q 431 308 431 315 q 431 339 416 348 q 401 356 347 356 l 270 356 l 236 356 l 176 84 q 176 82 175 78 q 170 55 170 46 q 170 39 176 37 q 181 34 203 34 l 252 34 l 285 34 q 364 34 400 43 q 437 51 464 72 q 487 89 505 116 q 522 142 535 180 l 559 180 q 546 136 536 92 q 525 47 516 0 l 174 0 q 71 0 34 -1 q -3 -1 -25 -3 l -25 19 q 28 19 46 30 q 63 42 73 84 l 195 631 q 198 648 199 655 q 200 661 200 665 q 200 680 188 686 q 175 692 126 696 z"},"s":{"x_min":0,"x_max":374,"ha":374,"o":"m 319 465 q 318 456 317 437 q 312 370 310 334 l 290 334 q 288 390 260 422 q 231 454 185 454 q 154 454 134 438 q 114 422 114 398 q 114 367 174 306 q 183 297 188 292 q 192 288 199 281 q 286 193 286 135 q 286 74 245 30 q 204 -13 146 -13 q 117 -13 73 -1 q 29 11 15 11 q 11 11 -11 7 l -16 6 q -9 59 1 153 q 4 174 5 184 l 23 184 q 31 109 65 65 q 100 22 150 22 q 185 22 207 44 q 230 67 230 101 q 230 137 145 219 q 124 240 113 251 q 74 290 60 317 q 46 343 46 373 q 46 417 85 448 q 124 480 178 480 q 209 480 250 471 q 290 463 300 463 q 303 463 315 464 q 317 465 319 465 z"},">":{"x_min":0,"x_max":833,"ha":833,"o":"m 129 566 l 704 330 l 704 267 l 129 31 l 129 106 l 603 298 l 129 491 z"},"l":{"x_min":0,"x_max":279,"ha":279,"o":"m 256 754 l 112 108 q 111 103 110 98 q 110 93 110 83 q 110 72 115 66 q 121 60 131 60 q 144 60 159 73 q 174 85 206 125 l 222 114 q 188 55 149 21 q 110 -13 78 -13 q 52 -13 39 1 q 25 16 25 43 q 25 69 44 155 l 46 163 l 153 643 q 155 653 156 659 q 157 665 157 667 q 157 677 149 681 q 142 685 122 685 q 112 685 106 685 q 101 685 95 684 l 95 706 q 141 718 181 730 q 222 742 256 754 z"},"8":{"x_min":0,"x_max":554,"ha":554,"o":"m 256 351 q 183 320 148 276 q 113 231 113 171 q 113 105 153 63 q 193 22 257 22 q 316 22 356 56 q 396 90 396 141 q 396 188 365 234 q 335 281 256 351 z m 341 380 q 413 321 443 275 q 473 228 473 178 q 473 95 407 41 q 341 -13 236 -13 q 137 -13 79 30 q 22 72 22 145 q 22 221 79 279 q 136 337 240 366 q 187 418 163 458 q 140 498 140 537 q 140 610 199 655 q 258 699 356 699 q 436 699 482 663 q 529 627 529 566 q 529 508 481 461 q 434 414 341 380 z m 325 394 q 385 418 417 460 q 449 501 449 555 q 449 606 416 639 q 382 672 330 672 q 282 672 252 643 q 223 614 223 566 q 223 526 247 485 q 271 444 325 394 z"},"\\":{"x_min":0,"x_max":395,"ha":395,"o":"m 128 728 l 171 728 l 288 -106 l 245 -106 z"},"e":{"x_min":0,"x_max":443,"ha":443,"o":"m 87 207 q 84 194 83 185 q 82 175 82 168 q 82 113 110 81 q 137 48 183 48 q 223 48 263 71 q 303 95 346 144 l 362 133 q 314 61 261 24 q 208 -13 150 -13 q 79 -13 39 29 q -2 72 -2 146 q -2 189 12 234 q 26 278 53 319 q 103 395 171 437 q 238 480 306 480 q 357 480 385 457 q 413 435 413 394 q 413 315 324 264 q 235 212 87 207 z m 93 229 q 201 237 269 287 q 336 337 336 408 q 336 430 325 442 q 313 454 293 454 q 236 454 178 390 q 120 327 93 229 z"},"b":{"x_min":0,"x_max":501,"ha":501,"o":"m 104 172 q 101 158 100 143 q 98 128 98 112 q 98 67 117 43 q 136 18 170 18 q 203 18 234 39 q 265 60 294 100 q 329 149 349 209 q 369 269 369 323 q 369 371 349 398 q 329 425 294 425 q 258 425 219 397 q 181 369 134 308 z m 233 754 l 144 356 q 196 420 241 450 q 287 480 332 480 q 389 480 421 443 q 453 405 453 338 q 453 280 430 219 q 406 158 361 100 q 318 43 266 15 q 214 -14 155 -14 q 87 -14 53 14 q 19 42 19 97 q 19 113 21 130 q 23 146 27 163 l 133 643 q 135 651 136 658 q 137 665 137 668 q 137 677 130 681 q 123 685 105 685 q 94 685 88 685 q 82 685 76 684 l 76 706 q 109 715 146 726 q 184 738 233 754 z"},"%":{"x_min":0,"x_max":815,"ha":815,"o":"m 712 258 q 712 307 693 333 q 674 358 638 358 q 582 358 535 288 q 488 219 488 128 q 488 79 508 53 q 528 27 565 27 q 622 27 667 96 q 712 166 712 258 z m 633 385 q 691 385 725 347 q 759 309 759 243 q 759 203 746 163 q 732 123 707 87 q 672 37 630 12 q 588 -13 539 -13 q 481 -13 447 25 q 412 63 412 128 q 412 168 425 208 q 438 247 464 282 q 500 331 544 358 q 589 385 633 385 z m 352 572 q 352 621 333 646 q 314 672 278 672 q 222 672 175 602 q 128 533 128 442 q 128 393 148 367 q 168 341 205 341 q 262 341 307 410 q 352 479 352 572 z m 274 699 q 332 699 365 661 q 399 623 399 557 q 399 517 386 477 q 373 436 348 401 q 313 352 270 326 q 227 301 179 301 q 121 301 86 339 q 52 376 52 441 q 52 481 65 521 q 79 561 104 596 q 139 644 184 672 q 229 699 274 699 z m 620 710 l 652 689 l 193 -25 l 159 -6 z"},"m":{"x_min":0,"x_max":815,"ha":815,"o":"m 189 480 l 141 268 q 236 380 298 430 q 359 480 401 480 q 422 480 436 466 q 449 452 449 429 q 449 416 443 383 q 436 351 417 273 q 496 376 560 428 q 625 480 676 480 q 701 480 717 465 q 733 450 733 427 q 733 418 731 406 q 729 394 724 379 l 645 105 q 642 95 641 89 q 640 83 640 78 q 640 67 646 61 q 651 55 661 55 q 674 55 695 72 q 715 88 745 125 l 760 112 q 717 52 677 19 q 636 -14 604 -14 q 582 -14 569 0 q 556 15 556 40 q 556 50 558 64 q 561 78 565 94 l 643 364 q 645 371 646 377 q 647 383 647 390 q 647 398 640 405 q 633 411 624 411 q 587 411 531 362 q 474 313 406 224 l 357 0 l 281 0 l 362 364 q 364 372 365 378 q 366 385 366 390 q 366 399 360 405 q 353 411 342 411 q 314 411 258 360 q 202 310 136 224 l 86 0 l 10 0 l 92 369 q 94 377 95 385 q 96 393 96 394 q 96 403 89 407 q 81 411 63 411 q 52 411 46 411 q 40 411 34 410 l 34 432 q 51 437 121 458 q 164 472 189 480 z"},"#":{"x_min":0,"x_max":769,"ha":769,"o":"m 343 422 l 295 287 l 433 287 l 480 422 z m 371 712 l 447 712 l 368 490 l 503 490 l 582 712 l 658 712 l 579 490 l 726 490 l 702 422 l 555 422 l 508 287 l 664 287 l 640 219 l 484 219 l 405 -2 l 329 -2 l 408 219 l 272 219 l 193 -2 l 118 -2 l 196 219 l 43 219 l 68 287 l 220 287 l 268 422 l 104 422 l 129 490 l 292 490 z"},",":{"x_min":0,"x_max":277,"ha":277,"o":"m -22 -150 l -29 -134 q 28 -108 60 -73 q 92 -39 100 6 q 90 -1 81 -5 q 72 -8 61 -8 q 46 -8 36 4 q 26 16 26 35 q 26 62 45 83 q 63 103 88 103 q 113 103 128 84 q 142 65 142 33 q 142 -21 100 -69 q 57 -116 -22 -150 z"},"n":{"x_min":0,"x_max":551,"ha":551,"o":"m 189 480 l 141 268 q 234 380 299 430 q 363 480 412 480 q 437 480 452 465 q 468 451 468 427 q 468 418 466 406 q 463 395 459 379 l 380 105 q 377 93 376 87 q 375 82 375 78 q 375 67 381 61 q 386 55 396 55 q 410 55 429 71 q 449 87 481 125 l 495 112 q 454 53 412 19 q 371 -14 339 -14 q 317 -14 304 0 q 291 15 291 41 q 291 52 293 65 q 296 77 301 94 l 378 364 q 380 371 382 378 q 383 384 383 390 q 383 398 375 405 q 368 411 359 411 q 322 411 262 361 q 203 311 136 224 l 86 0 l 10 0 l 92 369 q 94 377 95 385 q 96 393 96 394 q 96 403 89 407 q 81 411 63 411 q 52 411 46 411 q 40 411 34 410 l 34 432 q 51 437 121 458 q 164 472 189 480 z"},"h":{"x_min":0,"x_max":543,"ha":543,"o":"m 246 754 l 138 274 q 234 387 295 433 q 355 480 404 480 q 429 480 445 465 q 460 451 460 427 q 460 418 458 406 q 456 394 451 379 l 372 105 q 369 95 368 89 q 367 83 367 78 q 367 67 373 61 q 378 55 388 55 q 401 55 422 72 q 442 88 472 125 l 487 112 q 444 52 404 19 q 363 -14 331 -14 q 309 -14 296 0 q 283 15 283 40 q 283 50 285 63 q 288 75 293 94 l 370 364 q 373 372 374 378 q 375 384 375 390 q 375 398 368 405 q 361 411 351 411 q 315 411 255 362 q 196 312 128 224 l 78 0 l 2 0 l 145 643 q 146 645 146 647 q 150 665 150 668 q 150 677 143 681 q 135 685 117 685 q 106 685 100 685 q 94 685 88 684 l 88 706 q 122 714 161 727 q 201 739 246 754 z"},"z":{"x_min":0,"x_max":401,"ha":401,"o":"m 383 475 q 381 452 354 416 q 328 380 263 313 q 244 293 208 258 q 66 115 37 58 q 57 65 93 69 q 129 73 181 73 l 224 73 q 254 73 276 88 q 297 103 309 132 l 330 132 q 320 104 310 74 q 301 44 288 0 q 256 1 227 2 q 197 3 170 3 q 93 3 44 -1 q -6 -5 -37 -13 q -26 25 10 77 q 45 129 105 191 q 122 209 198 283 q 274 358 314 411 q 291 405 217 401 q 184 400 164 399 l 164 399 q 72 393 55 347 l 34 347 q 47 384 56 413 q 65 442 71 467 q 96 465 122 465 q 147 464 173 464 q 221 464 273 467 q 326 470 383 475 z"},"B":{"x_min":0,"x_max":641,"ha":641,"o":"m 178 92 q 175 80 173 71 q 172 63 172 58 q 172 42 190 35 q 208 29 254 29 q 345 29 398 84 q 450 139 450 234 q 450 302 410 336 q 371 369 289 369 l 283 369 q 239 369 230 332 q 229 322 227 316 z m 246 400 q 253 399 260 399 q 268 399 283 399 q 384 399 437 444 q 489 489 489 575 q 489 631 457 657 q 424 684 357 684 q 309 684 300 644 q 298 636 297 631 z m 126 717 q 150 714 178 713 q 206 712 240 712 q 266 712 306 714 q 347 717 362 717 q 483 717 536 684 q 589 651 589 576 q 589 501 538 452 q 488 403 395 390 q 471 378 512 337 q 553 297 553 234 q 553 182 534 137 q 515 91 481 61 q 444 28 396 14 q 348 0 264 0 q 231 0 180 1 q 128 3 110 3 q 70 3 37 1 q 3 0 -25 -3 l -25 19 q 28 19 46 30 q 63 42 73 84 l 195 631 q 197 642 199 651 q 200 661 200 665 q 200 690 128 696 l 126 696 z"},"K":{"x_min":0,"x_max":691,"ha":691,"o":"m 529 717 q 548 713 570 712 q 591 710 615 710 q 643 710 670 712 q 696 713 722 717 l 722 696 l 716 696 q 675 696 483 534 q 396 460 342 416 l 527 136 l 534 125 q 603 19 660 19 l 666 19 l 666 -3 q 614 1 584 2 q 554 4 532 4 q 510 4 480 2 q 450 1 397 -3 l 397 19 q 437 21 450 26 q 464 31 464 43 q 464 48 461 54 q 459 61 450 74 l 253 378 l 559 644 q 576 659 580 665 q 585 672 585 678 q 585 685 572 689 q 559 694 529 696 z m 126 717 q 153 713 183 712 q 212 710 246 710 q 285 710 323 712 q 360 713 395 717 l 395 696 q 342 696 324 685 q 307 674 297 631 l 176 84 q 173 71 171 62 q 170 53 170 47 q 170 24 241 19 l 244 19 l 244 -3 q 192 1 162 2 q 132 4 110 4 q 87 4 57 2 q 27 1 -25 -3 l -25 19 q 28 19 46 30 q 63 42 73 84 l 195 631 q 198 648 199 655 q 200 661 200 665 q 200 680 188 686 q 175 692 126 696 z"},"R":{"x_min":0,"x_max":659,"ha":659,"o":"m 241 378 q 248 377 255 377 q 262 377 277 377 q 388 377 449 426 q 511 475 511 561 q 511 626 474 656 q 438 685 355 685 q 308 685 299 644 q 298 637 297 633 z m 126 717 q 151 714 179 713 q 208 712 245 712 q 271 712 318 714 q 365 717 386 717 q 500 717 555 682 q 609 646 609 572 q 609 486 550 432 q 490 377 381 362 q 393 356 405 342 q 417 327 428 303 l 539 74 q 555 41 573 30 q 590 19 624 19 l 629 19 l 629 -3 q 606 -1 575 -1 q 543 0 504 0 l 467 0 l 320 306 q 308 331 295 340 q 282 349 257 349 q 248 349 243 349 q 238 349 234 348 l 176 84 q 173 72 172 62 q 170 52 170 47 q 170 24 241 19 l 244 19 l 244 -3 q 192 1 162 2 q 132 4 110 4 q 87 4 57 2 q 27 1 -25 -3 l -25 19 q 28 19 46 30 q 63 42 73 84 l 195 631 q 197 642 199 651 q 200 661 200 665 q 200 690 128 696 l 126 696 z"},"T":{"x_min":0,"x_max":643,"ha":643,"o":"m 112 717 q 131 714 153 713 q 175 712 203 712 l 259 712 l 539 712 q 600 712 629 713 q 657 714 680 717 q 671 680 661 635 q 651 589 640 532 l 618 532 q 619 537 619 546 q 622 574 622 584 q 622 635 597 657 q 572 680 516 680 l 441 680 l 309 84 q 306 72 305 62 q 303 52 303 47 q 303 24 374 19 l 377 19 l 377 -3 q 324 1 294 2 q 264 4 241 4 q 218 4 187 2 q 157 1 106 -3 l 106 19 q 158 19 176 30 q 193 41 203 84 l 335 680 l 282 680 q 204 680 161 649 q 119 617 81 532 l 60 532 q 76 584 88 630 q 101 675 112 717 z"},"P":{"x_min":0,"x_max":585,"ha":585,"o":"m 233 343 q 238 342 244 342 q 250 342 261 342 q 364 342 424 404 q 484 467 484 574 q 484 632 452 658 q 420 685 352 685 q 309 685 300 646 q 298 637 297 633 z m 126 717 q 150 714 178 713 q 207 712 244 712 l 264 712 q 279 712 317 714 q 355 717 379 717 q 487 717 536 679 q 584 641 584 557 q 584 442 502 377 q 421 312 276 312 q 261 312 229 314 l 227 314 l 176 84 q 173 71 171 62 q 170 53 170 47 q 170 24 241 19 l 244 19 l 244 -3 q 192 1 162 2 q 132 4 110 4 q 87 4 57 2 q 27 1 -25 -3 l -25 19 q 28 19 46 30 q 63 42 73 84 l 195 631 q 197 642 199 651 q 200 661 200 665 q 200 690 128 696 l 126 696 z"},"|":{"x_min":0,"x_max":500,"ha":500,"o":"m 214 764 l 287 764 l 287 -236 l 214 -236 z"},"t":{"x_min":0,"x_max":303,"ha":303,"o":"m 196 604 l 225 604 l 186 430 l 275 430 l 275 401 l 179 401 l 114 105 q 112 96 110 87 q 109 79 109 74 q 109 66 115 61 q 121 55 128 55 q 138 55 159 73 q 180 92 208 125 l 223 112 q 181 52 140 20 q 99 -13 68 -13 q 48 -13 35 0 q 23 14 23 36 q 23 41 26 56 q 28 72 33 94 l 101 401 l 43 401 l 43 430 q 94 432 131 474 q 167 516 196 604 z"},"M":{"x_min":0,"x_max":894,"ha":894,"o":"m 143 717 q 162 715 184 715 q 205 714 230 714 q 260 714 276 714 q 292 714 307 715 l 403 159 l 739 715 q 755 714 772 714 q 790 714 823 714 q 850 714 874 715 q 897 715 918 717 l 918 696 q 866 696 848 685 q 831 674 821 631 l 699 84 q 696 71 694 62 q 693 53 693 47 q 693 24 764 19 l 767 19 l 767 -3 q 711 1 683 2 q 654 4 633 4 q 613 4 584 2 q 555 1 502 -3 l 502 19 q 554 19 572 30 q 589 41 599 84 l 721 620 l 348 0 l 335 0 l 227 620 l 116 119 q 110 95 108 79 q 105 63 105 54 q 105 37 117 30 q 129 22 169 19 l 169 -3 q 125 1 107 3 q 89 4 76 4 q 62 4 42 2 q 22 1 -16 -3 l -16 19 l -9 19 q 31 19 49 36 q 66 53 81 119 l 195 631 q 198 648 199 655 q 200 661 200 665 q 200 679 189 685 q 178 692 143 696 z"},"g":{"x_min":0,"x_max":464,"ha":464,"o":"m 100 22 q 73 -4 58 -33 q 44 -62 44 -89 q 44 -141 80 -169 q 117 -197 183 -197 q 248 -197 290 -170 q 332 -143 332 -102 q 332 -68 283 -41 q 234 -14 100 22 z m 349 437 q 366 417 373 395 q 381 372 381 342 q 381 303 365 264 q 348 226 318 194 q 292 167 258 152 q 225 137 190 137 q 173 137 159 140 q 146 143 133 148 q 114 131 105 121 q 97 112 97 106 q 97 93 178 68 q 221 56 247 47 q 323 22 351 -4 q 379 -30 379 -72 q 379 -142 318 -184 q 256 -227 154 -227 q 65 -227 14 -194 q -38 -160 -38 -104 q -38 -60 -10 -27 q 19 6 77 30 q 52 40 38 52 q 24 64 24 78 q 24 93 46 113 q 68 133 113 159 q 82 180 65 212 q 49 245 49 286 q 49 364 109 422 q 169 480 252 480 q 273 480 294 473 q 314 465 333 451 q 366 473 385 481 q 405 489 421 489 q 438 489 448 478 q 458 467 458 449 q 458 430 448 419 q 439 407 424 407 q 405 407 395 429 q 384 450 375 450 q 372 450 366 448 q 361 445 349 437 z m 255 452 q 236 452 219 443 q 203 434 190 416 q 161 377 146 335 q 131 292 131 250 q 131 212 147 192 q 163 171 192 171 q 213 171 230 183 q 248 195 263 219 q 286 256 299 298 q 311 340 311 379 q 311 414 296 433 q 282 452 255 452 z"},"j":{"x_min":0,"x_max":250,"ha":250,"o":"m 208 480 l 80 -30 q 58 -117 19 -172 q -20 -227 -58 -227 q -82 -227 -98 -210 q -114 -193 -114 -168 q -114 -146 -101 -132 q -88 -117 -69 -117 q -48 -117 -34 -142 q -20 -166 -17 -166 q -3 -166 6 -81 q 14 5 30 72 l 100 369 q 102 377 103 384 q 104 390 104 393 q 104 403 96 407 q 88 411 69 411 q 59 411 53 411 q 47 411 42 410 l 42 432 q 76 439 117 451 q 159 463 208 480 z m 180 714 q 203 714 219 697 q 235 680 235 656 q 235 629 219 613 q 203 596 177 596 q 152 596 138 612 q 123 627 123 654 q 123 679 140 697 q 156 714 180 714 z"},"i":{"x_min":0,"x_max":282,"ha":282,"o":"m 201 480 l 112 105 q 109 94 108 87 q 107 80 107 75 q 107 65 111 60 q 116 55 124 55 q 136 55 153 70 q 171 85 206 125 l 220 112 q 179 53 137 20 q 96 -13 65 -13 q 45 -13 33 0 q 21 14 21 36 q 21 42 24 58 q 26 73 31 94 l 97 369 q 99 377 100 384 q 101 390 101 394 q 101 403 94 407 q 86 411 68 411 q 57 411 51 411 q 45 411 39 410 l 39 432 q 83 442 123 454 q 164 466 201 480 z m 194 714 q 217 714 232 697 q 248 681 248 656 q 248 629 232 613 q 216 596 190 596 q 166 596 151 612 q 136 627 136 654 q 136 679 153 697 q 170 714 194 714 z"},"y":{"x_min":0,"x_max":427,"ha":427,"o":"m 87 480 q 134 400 167 293 q 200 187 218 53 q 279 153 312 234 q 345 314 345 360 q 345 372 341 377 q 337 383 324 387 q 300 393 294 402 q 288 411 288 430 q 288 456 301 468 q 313 480 340 480 q 371 480 384 468 q 397 456 397 427 q 397 353 350 245 q 302 138 191 -36 q 126 -137 80 -182 q 34 -227 -4 -227 q -28 -227 -39 -215 q -50 -202 -50 -173 q -50 -145 -39 -132 q -28 -119 -4 -119 q 16 -119 27 -144 q 37 -168 44 -168 q 61 -168 89 -135 q 118 -102 163 -30 q 157 41 140 120 q 123 199 94 284 q 66 365 53 391 q 41 417 29 417 q 22 417 11 414 q 0 411 -19 405 l -28 425 q 0 435 29 448 q 58 462 87 480 z"},"@":{"x_min":0,"x_max":986,"ha":986,"o":"m 579 162 q 549 111 512 86 q 475 61 429 61 q 366 61 329 106 q 291 151 291 226 q 291 279 315 332 q 339 384 384 427 q 417 458 455 475 q 493 492 531 492 q 575 492 602 469 q 629 445 639 399 l 664 484 l 741 484 l 657 185 q 657 184 655 179 q 648 152 648 137 q 648 112 659 99 q 671 85 692 85 q 708 85 731 95 q 754 104 775 120 q 833 164 863 232 q 892 299 892 387 q 892 452 866 507 q 841 562 790 605 q 746 643 686 663 q 625 683 555 683 q 467 683 391 653 q 315 623 257 565 q 195 504 164 425 q 133 345 133 250 q 133 161 161 97 q 188 33 248 -17 q 301 -62 372 -86 q 443 -110 522 -110 q 605 -110 682 -85 q 758 -60 828 -9 l 844 -29 q 772 -83 692 -110 q 611 -137 523 -137 q 431 -137 354 -115 q 278 -93 220 -49 q 146 6 108 86 q 69 166 69 262 q 69 361 111 448 q 153 535 234 601 q 299 655 378 683 q 456 710 545 710 q 714 710 816 618 q 918 526 918 374 q 918 296 889 229 q 861 161 808 113 q 779 87 747 74 q 714 60 681 60 q 634 60 608 86 q 583 112 579 162 z m 539 469 q 513 469 491 454 q 469 439 447 406 q 412 354 392 292 q 371 230 371 180 q 371 138 390 113 q 410 87 440 87 q 472 87 500 108 q 528 129 554 173 q 581 218 597 272 q 614 327 614 369 q 614 414 593 442 q 573 469 539 469 z"},".":{"x_min":0,"x_max":277,"ha":277,"o":"m 84 105 q 106 105 119 90 q 133 75 133 51 q 133 22 118 4 q 103 -13 79 -13 q 57 -13 43 2 q 29 18 29 43 q 29 69 45 87 q 61 105 84 105 z"},"p":{"x_min":0,"x_max":507,"ha":507,"o":"m 125 172 q 122 158 121 143 q 119 128 119 114 q 119 73 140 51 q 160 28 197 28 q 229 28 259 49 q 288 69 313 110 q 344 160 362 219 q 380 278 380 330 q 380 374 360 398 q 339 422 303 422 q 272 422 239 402 q 205 381 163 337 z m 189 480 l 166 370 q 217 428 259 454 q 301 480 343 480 q 398 480 429 444 q 460 407 460 343 q 460 275 432 205 q 404 134 355 81 q 319 41 280 21 q 241 0 201 0 q 166 0 141 14 q 117 29 101 59 l 59 -129 q 56 -142 54 -151 q 53 -160 53 -167 q 53 -185 67 -193 q 80 -201 117 -203 l 117 -222 q 113 -222 105 -222 q 34 -218 3 -218 q -24 -218 -50 -219 q -76 -220 -100 -222 l -100 -203 q -57 -199 -42 -188 q -27 -177 -19 -141 l 93 368 q 96 379 97 385 q 98 391 98 394 q 98 403 91 406 q 84 410 67 410 q 56 410 49 410 q 42 410 36 409 l 36 432 q 54 437 151 468 z"},"X":{"x_min":0,"x_max":612,"ha":612,"o":"m 40 717 q 67 713 97 712 q 126 710 160 710 q 200 710 237 712 q 273 713 309 717 l 309 696 q 257 689 246 683 q 234 678 234 666 q 234 660 241 643 q 245 636 246 632 l 334 422 l 531 646 q 542 657 546 664 q 550 670 550 674 q 550 682 534 688 q 519 695 494 696 l 494 717 q 525 713 545 712 q 565 710 582 710 q 599 710 617 712 q 636 713 660 717 l 660 696 q 640 693 621 680 q 602 667 565 628 l 348 393 l 475 100 q 476 97 478 93 q 508 24 576 19 l 576 -3 q 525 1 494 2 q 463 4 441 4 q 419 4 390 2 q 361 1 307 -3 l 307 19 q 357 27 370 32 q 382 37 382 46 q 382 55 379 65 q 377 75 371 88 l 272 328 l 56 80 q 55 79 52 75 q 32 53 32 43 q 32 33 48 27 q 63 21 91 19 l 91 -3 q 56 1 34 2 q 11 4 -5 4 q -21 4 -41 2 q -60 1 -90 -3 l -90 19 l -88 19 q -65 19 -40 37 q -14 56 35 110 l 258 358 l 135 636 q 119 673 100 684 q 82 695 40 696 z"},"*":{"x_min":0,"x_max":451,"ha":451,"o":"m 234 519 l 240 519 q 245 501 253 470 q 270 411 270 395 q 270 375 262 366 q 253 356 237 356 q 221 356 212 366 q 204 375 204 395 q 204 411 221 470 q 229 500 234 519 z m 263 535 q 270 533 282 530 q 408 499 408 468 q 408 455 399 444 q 389 434 377 434 q 354 434 291 499 q 271 519 260 530 z m 219 535 l 222 530 q 211 519 191 499 q 128 434 105 434 q 93 434 84 444 q 75 455 75 468 q 75 499 201 530 q 212 533 219 535 z m 263 553 l 260 558 q 270 568 288 586 q 354 654 378 654 q 390 654 399 644 q 408 633 408 620 q 408 590 292 561 q 273 556 263 553 z m 223 558 l 220 553 q 213 555 200 558 q 75 589 75 620 q 75 633 84 644 q 94 654 106 654 q 129 654 188 594 q 210 571 223 558 z m 240 565 l 234 565 q 229 583 221 614 q 204 673 204 689 q 204 708 212 718 q 221 728 237 728 q 253 728 262 718 q 270 708 270 689 q 270 674 256 624 q 246 587 240 565 z"},"Y":{"x_min":0,"x_max":580,"ha":580,"o":"m 26 717 q 52 713 80 712 q 108 710 140 710 q 178 710 213 712 q 248 713 281 717 l 281 696 q 243 690 227 683 q 211 676 211 665 q 211 653 221 626 q 222 624 222 622 l 318 354 l 535 626 q 551 646 556 656 q 562 666 562 673 q 562 682 548 687 q 533 693 503 696 l 503 717 q 525 713 547 712 q 569 710 592 710 q 616 710 639 712 q 663 713 686 717 l 686 696 q 630 687 580 626 l 579 625 l 331 316 l 279 84 q 276 71 274 62 q 273 53 273 49 q 273 24 339 20 q 345 19 347 19 l 347 -3 q 293 1 264 2 q 235 4 213 4 q 191 4 160 2 q 129 1 78 -3 l 78 19 q 131 19 149 30 q 167 42 176 84 l 229 321 l 116 627 q 109 647 100 662 q 90 678 82 683 q 77 686 68 688 q 58 691 26 696 z"},"c":{"x_min":0,"x_max":448,"ha":448,"o":"m 341 137 l 358 127 q 312 55 264 20 q 216 -14 162 -14 q 91 -14 48 32 q 5 78 5 154 q 5 197 19 241 q 33 285 60 327 q 106 398 172 439 q 238 480 304 480 q 355 480 386 456 q 418 432 418 394 q 418 364 405 347 q 391 331 366 331 q 344 331 331 339 q 319 346 319 360 q 319 366 328 388 q 337 409 337 426 q 337 440 329 448 q 320 455 304 455 q 278 455 251 444 q 224 433 200 412 q 149 367 120 303 q 90 240 90 176 q 90 114 118 81 q 147 48 200 48 q 235 48 269 69 q 302 90 341 137 z"},"!":{"x_min":0,"x_max":369,"ha":369,"o":"m 118 105 q 140 105 153 90 q 167 75 167 51 q 167 22 152 4 q 137 -13 113 -13 q 91 -13 77 2 q 63 18 63 43 q 63 69 79 87 q 95 105 118 105 z m 291 617 l 168 234 q 165 225 163 217 q 161 208 160 200 l 139 203 q 144 218 146 226 q 147 233 148 239 l 197 633 q 204 687 218 707 q 231 728 257 728 q 279 728 291 715 q 303 701 303 676 q 303 666 300 650 q 296 634 291 617 z"},"/":{"x_min":0,"x_max":395,"ha":395,"o":"m 402 728 l 451 728 l -30 -106 l -79 -106 z"},"[":{"x_min":0,"x_max":390,"ha":390,"o":"m 234 715 l 436 715 l 436 691 l 308 691 l 127 -125 l 256 -125 l 256 -149 l 43 -149 z"},"6":{"x_min":0,"x_max":554,"ha":554,"o":"m 145 348 q 138 318 134 286 q 130 253 130 219 q 130 133 165 85 q 199 37 261 37 q 330 37 376 93 q 423 149 423 232 q 423 309 382 360 q 341 411 280 411 q 252 411 221 396 q 189 382 145 348 z m 519 680 l 512 657 q 482 663 460 666 q 438 669 424 669 q 333 669 265 595 q 197 522 150 373 q 206 425 250 448 q 295 470 339 470 q 412 470 453 421 q 495 373 495 287 q 495 244 486 205 q 477 167 459 133 q 421 62 364 25 q 307 -13 238 -13 q 148 -13 95 50 q 42 113 42 219 q 42 287 59 354 q 76 422 109 485 q 165 592 239 646 q 312 699 406 699 q 428 699 456 694 q 484 689 519 680 z"},"r":{"x_min":0,"x_max":348,"ha":348,"o":"m 186 480 l 140 275 q 152 294 173 328 q 267 480 305 480 q 324 480 333 467 q 342 454 342 425 q 342 385 332 369 q 322 352 299 352 q 284 352 275 369 q 267 386 263 386 q 253 386 221 348 q 189 310 135 234 l 84 0 l 10 0 l 91 368 q 93 376 94 384 q 95 391 95 394 q 95 403 87 406 q 80 410 63 410 q 53 410 47 410 q 41 410 34 409 l 34 432 q 72 442 110 454 q 148 466 186 480 z"},"2":{"x_min":0,"x_max":554,"ha":554,"o":"m 100 82 q 125 83 148 83 q 170 84 189 84 l 386 84 q 405 84 415 88 q 424 93 432 104 l 454 104 q 439 79 427 53 q 414 27 404 0 l 105 0 q 81 0 55 -1 q 29 -1 3 -3 l 3 37 q 255 247 334 340 q 413 433 413 500 q 413 562 377 601 q 340 639 281 639 q 221 639 179 605 q 137 571 127 513 l 106 513 q 118 600 176 650 q 234 699 325 699 q 403 699 455 650 q 507 600 507 526 q 507 471 478 421 q 449 372 374 306 q 332 269 239 196 q 146 123 100 82 z"},"{":{"x_min":0,"x_max":500,"ha":500,"o":"m 414 740 l 414 714 q 348 713 323 688 q 299 662 299 585 l 299 516 q 299 405 270 365 q 241 326 164 310 q 242 294 270 255 q 299 215 299 104 l 299 35 q 299 -42 323 -67 q 347 -92 414 -93 l 414 -119 l 409 -119 q 302 -119 262 -83 q 222 -47 222 50 l 222 151 q 222 229 193 259 q 165 289 87 295 l 87 326 q 166 333 194 362 q 222 392 222 470 l 222 571 q 222 668 262 704 q 302 740 409 740 z"},"9":{"x_min":0,"x_max":554,"ha":554,"o":"m 25 35 l 38 58 q 71 41 97 32 q 124 23 144 23 q 229 23 300 104 q 371 185 408 326 q 371 286 331 267 q 292 247 249 247 q 170 247 121 299 q 72 351 72 435 q 72 548 141 624 q 210 699 314 699 q 412 699 464 640 q 516 581 516 470 q 516 386 491 303 q 466 220 420 151 q 368 73 300 30 q 232 -13 163 -13 q 131 -13 97 -1 q 63 11 25 35 z m 417 363 q 423 386 426 416 q 428 445 428 491 q 428 583 400 626 q 372 670 313 670 q 247 670 201 615 q 155 560 155 479 q 155 403 196 354 q 237 304 298 304 q 329 304 360 319 q 391 334 417 363 z"}," ":{"x_min":0,"x_max":277,"ha":277,"o":""},"I":{"x_min":0,"x_max":377,"ha":377,"o":"m 128 717 q 155 713 185 712 q 215 710 249 710 q 290 710 327 712 q 364 713 400 717 l 400 696 q 346 696 329 685 q 312 674 302 631 l 180 84 q 178 74 176 64 q 175 54 175 49 q 175 24 241 20 q 247 19 249 19 l 249 -3 q 196 1 166 2 q 136 4 113 4 q 90 4 60 2 q 30 1 -23 -3 l -23 19 q 30 19 48 30 q 65 42 75 84 l 197 631 q 200 648 201 655 q 202 661 202 665 q 202 680 189 686 q 177 692 128 696 z"},"H":{"x_min":0,"x_max":786,"ha":786,"o":"m 126 717 q 153 713 183 712 q 212 710 246 710 q 285 710 323 712 q 360 713 395 717 l 395 696 q 342 696 324 685 q 307 674 297 631 l 243 385 l 556 385 l 610 631 q 611 636 613 645 q 616 660 616 665 q 616 680 604 686 q 591 692 542 696 l 542 717 q 567 714 596 712 q 625 711 665 711 q 711 711 746 712 q 781 714 811 717 l 811 696 q 758 696 740 685 q 723 674 713 631 l 591 84 q 588 71 586 62 q 585 53 585 47 q 585 25 657 19 l 660 19 l 660 -3 q 607 1 577 2 q 547 4 525 4 q 503 4 473 2 q 443 1 391 -3 l 391 19 q 443 19 461 30 q 479 41 488 84 l 548 351 l 235 351 l 176 84 q 173 70 171 61 q 170 52 170 47 q 170 24 241 19 l 244 19 l 244 -3 q 192 1 162 2 q 132 4 110 4 q 87 4 57 2 q 27 1 -25 -3 l -25 19 q 28 19 46 30 q 63 42 73 84 l 195 631 q 198 648 199 655 q 200 661 200 665 q 200 680 188 686 q 175 692 126 696 z"},"4":{"x_min":0,"x_max":554,"ha":554,"o":"m 389 605 l 63 274 l 306 274 z m 442 699 l 489 699 l 388 274 l 499 274 q 495 252 492 236 q 489 220 488 207 q 467 209 450 210 q 434 211 427 211 l 373 211 l 322 0 l 240 0 l 291 211 l 19 211 q 21 229 23 245 q 24 261 25 277 z"},"~":{"x_min":0,"x_max":833,"ha":833,"o":"m 747 376 l 747 300 q 696 265 650 248 q 604 231 557 231 q 512 231 432 259 q 421 263 416 265 l 408 268 q 322 297 275 297 q 234 297 189 279 q 145 261 87 220 l 87 296 q 139 331 186 349 q 232 366 276 366 q 306 366 338 360 q 370 353 418 336 q 426 333 441 328 q 519 300 558 300 q 601 300 646 318 q 690 336 747 376 z"},"D":{"x_min":0,"x_max":775,"ha":775,"o":"m 179 98 q 178 94 177 88 q 173 69 173 63 q 173 46 191 40 q 209 34 266 34 q 337 34 396 57 q 455 80 500 126 q 558 185 591 270 q 623 354 623 447 q 623 567 562 626 q 501 685 378 685 q 309 685 300 644 q 298 635 297 631 z m 126 717 q 150 714 178 713 q 207 712 244 712 l 264 712 q 283 712 329 714 q 375 717 403 717 q 576 717 654 655 q 733 593 733 457 q 733 364 698 281 q 662 198 593 127 q 527 60 448 30 q 369 0 255 0 q 230 0 182 1 q 134 3 110 3 q 71 3 37 1 q 2 0 -25 -3 l -25 19 q 28 19 46 30 q 63 42 73 84 l 195 631 q 197 642 199 651 q 200 661 200 665 q 200 690 128 696 l 126 696 z"},"^":{"x_min":0,"x_max":1000,"ha":1000,"o":"m 452 714 l 547 714 l 797 438 l 749 438 l 499 643 l 248 438 l 201 438 z"},"0":{"x_min":0,"x_max":554,"ha":554,"o":"m 337 668 q 312 668 287 657 q 263 646 242 625 q 185 568 151 462 q 117 356 117 231 q 117 135 145 85 q 172 35 225 35 q 266 35 298 62 q 331 89 361 148 q 378 181 393 225 q 408 270 421 325 q 430 367 435 407 q 440 447 440 481 q 440 573 414 621 q 388 668 337 668 z m 342 699 q 430 699 478 640 q 526 580 526 471 q 526 362 490 258 q 454 153 390 77 q 352 32 306 9 q 261 -13 209 -13 q 119 -13 72 46 q 25 106 25 219 q 25 293 43 369 q 61 444 95 515 q 136 600 203 650 q 270 699 342 699 z"},"F":{"x_min":0,"x_max":567,"ha":567,"o":"m 126 717 q 140 716 157 715 q 175 715 211 715 l 273 715 l 574 717 q 566 671 562 630 q 558 589 557 551 l 536 551 q 536 555 537 562 q 537 570 537 573 q 537 636 506 660 q 474 683 377 683 q 338 683 326 682 q 315 680 311 677 q 307 672 299 639 q 297 633 297 631 l 244 390 l 357 390 q 410 390 429 406 q 447 421 458 468 l 479 468 q 464 417 453 366 q 441 314 433 260 l 412 260 q 415 287 416 299 q 417 310 417 316 q 417 340 402 348 q 387 357 336 357 q 326 357 299 356 q 272 356 254 356 l 236 356 l 176 84 q 173 71 171 62 q 170 53 170 47 q 170 24 241 19 l 244 19 l 244 -3 q 192 1 162 2 q 132 4 110 4 q 87 4 57 2 q 27 1 -25 -3 l -25 19 q 28 19 46 30 q 63 42 73 84 l 195 631 q 198 648 199 655 q 200 661 200 665 q 200 680 188 686 q 175 692 126 696 z"},"`":{"x_min":0,"x_max":500,"ha":500,"o":"m 243 709 l 362 542 l 325 542 l 189 655 q 170 671 164 681 q 158 691 158 703 q 158 719 169 730 q 179 741 195 741 q 207 741 219 733 q 232 725 243 709 z"},"k":{"x_min":0,"x_max":506,"ha":506,"o":"m 246 754 l 135 256 l 314 376 q 335 391 348 405 q 361 419 361 428 q 361 437 351 441 q 341 446 319 448 l 319 467 q 323 467 331 466 q 391 463 416 463 q 439 463 461 464 q 482 465 503 467 l 503 448 l 501 448 q 484 448 456 434 q 428 420 372 383 l 256 305 q 286 175 312 114 q 338 53 364 53 q 378 53 394 68 q 410 83 440 127 l 457 119 q 414 41 387 14 q 361 -13 332 -13 q 291 -13 260 44 q 230 102 190 263 l 128 224 l 78 0 l 2 0 l 145 643 q 146 645 146 647 q 150 665 150 668 q 150 677 143 681 q 135 685 117 685 q 106 685 100 685 q 94 685 88 684 l 88 706 q 122 714 161 727 q 201 739 246 754 z"},"u":{"x_min":0,"x_max":551,"ha":551,"o":"m 194 480 l 119 140 q 117 129 115 116 q 114 104 114 90 q 114 65 124 52 q 134 40 153 40 q 190 40 242 96 q 294 153 356 261 l 402 467 l 477 467 l 397 105 q 395 91 393 83 q 392 75 392 71 q 392 62 396 57 q 400 52 408 52 q 418 52 434 65 q 449 78 491 125 l 506 112 q 460 49 421 18 q 382 -13 350 -13 q 331 -13 321 0 q 311 14 311 41 q 311 59 319 100 q 328 141 343 199 q 279 90 220 38 q 162 -13 103 -13 q 65 -13 47 4 q 28 21 28 55 q 28 73 38 114 q 41 129 43 138 l 93 368 q 96 381 97 386 q 98 392 98 394 q 98 403 91 406 q 83 410 65 410 q 55 410 49 410 q 42 410 36 409 l 36 432 q 68 440 107 452 q 146 463 194 480 z"},"]":{"x_min":0,"x_max":390,"ha":390,"o":"m 101 714 l 314 714 l 123 -149 l -79 -149 l -79 -125 l 49 -125 l 230 691 l 101 691 z"},"U":{"x_min":0,"x_max":781,"ha":781,"o":"m 128 717 q 164 714 198 712 q 232 711 264 711 q 295 711 329 712 q 363 714 400 717 l 400 696 q 346 696 329 685 q 312 674 302 631 l 223 275 q 216 242 212 217 q 209 191 209 172 q 209 110 251 74 q 293 38 364 38 q 452 38 505 88 q 559 137 582 240 l 664 596 q 669 619 671 635 q 674 650 674 657 q 674 678 662 685 q 651 692 602 696 l 602 717 q 636 714 662 712 q 687 711 703 711 q 722 711 747 712 q 771 714 803 717 l 803 696 l 792 696 q 750 696 732 679 q 714 663 699 596 l 616 229 q 588 107 514 47 q 440 -13 316 -13 q 217 -13 161 35 q 104 83 104 166 q 104 188 108 220 q 113 251 122 292 l 197 631 q 200 647 202 655 q 203 663 203 665 q 203 690 130 696 l 128 696 z"},"o":{"x_min":0,"x_max":509,"ha":509,"o":"m 377 334 q 377 390 353 422 q 328 453 285 453 q 258 453 231 439 q 205 424 182 397 q 139 348 114 281 q 89 215 89 153 q 89 93 116 57 q 143 21 187 21 q 208 21 227 28 q 247 36 263 50 q 312 93 345 172 q 377 251 377 334 z m 301 480 q 370 480 412 434 q 454 388 454 312 q 454 264 438 213 q 422 162 394 121 q 346 51 294 19 q 242 -13 178 -13 q 96 -13 49 33 q 2 80 2 161 q 2 209 20 258 q 38 307 72 351 q 120 413 180 447 q 239 480 301 480 z"},"N":{"x_min":0,"x_max":759,"ha":759,"o":"m 133 717 q 153 715 175 715 q 197 714 220 714 q 229 714 249 714 q 268 715 278 715 l 552 169 l 646 596 q 651 619 653 635 q 656 651 656 657 q 656 677 645 685 q 635 692 593 696 l 593 717 q 615 714 637 712 q 660 711 685 711 q 708 711 731 712 q 754 714 778 717 l 778 696 l 771 696 q 731 696 714 679 q 696 662 681 596 l 546 -13 l 537 -13 l 224 608 l 116 119 q 110 95 108 79 q 105 63 105 54 q 105 37 117 30 q 129 22 169 19 l 169 -3 q 125 1 107 3 q 89 4 76 4 q 62 4 42 2 q 22 1 -16 -3 l -16 19 l -9 19 q 31 19 50 37 q 68 55 81 119 l 197 648 q 186 677 174 687 q 162 696 138 696 l 133 696 z"},"+":{"x_min":0,"x_max":833,"ha":833,"o":"m 382 596 l 451 596 l 451 332 l 709 332 l 709 264 l 451 264 l 451 0 l 382 0 l 382 264 l 124 264 l 124 332 l 382 332 z"},"G":{"x_min":0,"x_max":791,"ha":791,"o":"m 734 705 q 723 656 713 604 q 704 553 695 500 l 674 500 q 673 592 625 645 q 578 697 495 697 q 444 697 393 675 q 341 653 296 612 q 227 550 189 465 q 152 380 152 286 q 152 171 212 100 q 272 30 370 30 q 414 30 451 43 q 489 57 518 83 l 559 267 q 562 284 563 290 q 564 297 564 301 q 564 315 552 322 q 540 328 490 333 l 490 354 q 516 351 545 349 q 574 347 607 347 q 645 347 681 349 q 717 351 751 354 l 751 333 q 698 332 681 321 q 664 311 654 267 l 608 63 q 545 25 478 6 q 412 -13 343 -13 q 203 -13 123 65 q 42 144 42 281 q 42 379 88 471 q 133 562 217 631 q 275 679 344 703 q 414 728 490 728 q 543 728 609 714 q 676 699 690 699 q 699 699 710 701 q 721 702 734 705 z"},"q":{"x_min":0,"x_max":512,"ha":512,"o":"m 388 419 l 447 480 l 462 480 l 327 -129 q 324 -142 322 -151 q 321 -160 321 -167 q 321 -185 334 -193 q 347 -200 384 -203 l 384 -222 q 379 -222 370 -221 q 301 -218 271 -218 q 243 -218 217 -219 q 191 -220 167 -222 l 167 -203 q 210 -199 225 -188 q 241 -177 249 -141 l 312 137 q 261 69 213 34 q 165 0 121 0 q 66 0 31 39 q -4 78 -4 138 q -4 193 19 249 q 42 306 87 362 q 132 418 182 449 q 232 480 278 480 q 315 480 342 465 q 369 450 388 419 z m 292 455 q 257 455 219 430 q 182 406 153 364 q 121 317 104 265 q 87 213 87 162 q 87 117 107 89 q 127 61 160 61 q 191 61 225 81 q 259 102 281 134 q 320 191 342 256 q 363 320 363 381 q 363 417 344 436 q 326 455 292 455 z"},"d":{"x_min":0,"x_max":533,"ha":533,"o":"m 338 360 q 338 404 318 429 q 298 455 264 455 q 236 455 206 434 q 177 414 149 374 q 117 329 98 269 q 79 209 79 154 q 79 104 98 75 q 116 47 149 47 q 170 47 193 61 q 216 76 237 102 q 285 165 312 232 q 338 300 338 360 z m 509 754 l 366 108 q 365 102 364 95 q 363 89 363 83 q 363 72 368 66 q 374 60 384 60 q 398 60 417 77 q 436 95 465 134 l 480 122 q 441 59 402 23 q 362 -13 330 -13 q 308 -13 294 2 q 281 18 281 43 q 281 63 286 93 q 292 123 302 163 q 258 75 209 31 q 161 -13 109 -13 q 55 -13 26 24 q -4 62 -4 130 q -4 187 18 250 q 40 313 77 362 q 121 420 167 450 q 213 480 259 480 q 295 480 320 460 q 345 440 355 403 l 409 643 q 411 653 412 659 q 413 665 413 667 q 413 677 406 681 q 398 685 378 685 q 368 685 362 685 q 356 685 351 684 l 351 706 q 386 715 426 727 q 465 739 509 754 z"},"1":{"x_min":0,"x_max":554,"ha":554,"o":"m 404 712 l 268 99 q 266 88 264 79 q 263 69 263 59 q 263 36 278 26 q 292 16 326 16 l 337 16 l 337 -2 q 307 -1 261 0 q 216 2 205 2 q 179 2 146 1 q 114 0 77 -2 l 77 16 q 125 16 149 38 q 173 60 186 117 l 282 552 q 283 556 284 562 q 286 572 286 575 q 286 583 282 587 q 279 591 273 591 q 267 591 243 580 q 219 568 174 544 l 163 563 q 251 611 393 704 z"},"5":{"x_min":0,"x_max":554,"ha":554,"o":"m 479 699 l 495 699 q 490 682 483 660 q 476 639 464 604 l 193 604 l 142 453 q 167 467 195 474 q 223 481 256 481 q 349 481 404 425 q 459 370 459 275 q 459 208 431 149 q 402 91 347 43 q 316 17 275 2 q 233 -13 191 -13 q 137 -13 93 9 q 50 31 17 76 l 35 94 q 63 61 100 43 q 136 26 178 26 q 263 26 316 86 q 369 146 369 244 q 369 327 325 373 q 281 419 201 419 q 176 419 148 411 q 120 403 88 386 l 191 686 l 440 686 q 461 686 469 689 q 477 692 479 699 z"}}}
